<?xml version="1.0" standalone="no"?><!DOCTYPE svg PUBLIC "-//W3C//DTD SVG 1.1//EN" "http://www.w3.org/Graphics/SVG/1.1/DTD/svg11.dtd"><svg t="1607388223109" class="icon" viewBox="0 0 1024 1024" version="1.1" xmlns="http://www.w3.org/2000/svg" p-id="3799" id="mx_n_1607388223112" width="16" height="16" xmlns:xlink="http://www.w3.org/1999/xlink"><defs><style type="text/css"></style></defs><path d="M124.096 192a60.16 60.16 0 1 0 0 120.192 60.16 60.16 0 0 0 0-120.192z m210.112 104.576h584.064c23.04 0 41.728-19.904 41.728-44.48 0-24.576-18.688-44.544-41.728-44.544H334.208c-23.04 0-41.728 19.968-41.728 44.544 0 24.576 18.688 44.48 41.728 44.48zM124.16 473.216a60.16 60.16 0 1 0 0 120.256 60.16 60.16 0 0 0 0-120.256z m794.24 15.616H334.144c-23.04 0-41.728 19.84-41.728 44.48 0 24.576 18.688 44.48 41.728 44.48h584.064c23.04 0 41.728-19.84 41.728-44.48 0-24.576-18.688-44.48-41.728-44.48z m-794.24 265.6a60.16 60.16 0 1 0 0 120.256 60.16 60.16 0 0 0 0-120.192z m794.24 15.616H334.144c-23.04 0-41.728 19.904-41.728 44.48 0 24.576 18.688 44.544 41.728 44.544h584.064c23.04 0 41.728-19.968 41.728-44.544 0-24.576-18.688-44.48-41.728-44.48z" fill="#ffffff" p-id="3800"></path></svg>